<svg width="80" height="91" viewBox="0 0 80 91" fill="none" xmlns="http://www.w3.org/2000/svg">
<g clip-path="url(#clip0_2029_2)">
<path fill-rule="evenodd" clip-rule="evenodd" d="M70.0701 17.5216C70.0037 17.0625 69.6053 16.8107 69.2733 16.7811C68.9414 16.7515 62.4935 16.6552 62.4935 16.6552C62.4935 16.6552 57.0933 11.3972 56.5622 10.8566C56.031 10.3234 54.9908 10.4863 54.585 10.6048C54.5776 10.6048 53.5743 10.9233 51.8702 11.4491C51.5898 10.5234 51.1693 9.39029 50.5717 8.24983C48.6536 4.56925 45.8355 2.62158 42.4345 2.61417C42.4271 2.61417 42.4271 2.61417 42.4198 2.61417C42.1837 2.61417 41.9476 2.63639 41.7115 2.6586C41.6083 2.54011 41.5124 2.42163 41.4017 2.30314C39.9188 0.710932 38.0229 -0.0592502 35.7433 0.00740023C31.3537 0.133295 26.979 3.3177 23.4305 8.97558C20.9369 12.9524 19.0336 17.9512 18.495 21.8243C13.4563 23.3943 9.92992 24.4903 9.84876 24.5125C7.30358 25.3123 7.22243 25.3938 6.89045 27.8006C6.66175 29.615 0 81.3135 0 81.3135L55.8097 91L80 84.9644C80 84.9644 70.1291 17.9808 70.0701 17.5216ZM49.0741 12.3155C47.7905 12.7154 46.3298 13.1671 44.7436 13.6633C44.7141 11.4342 44.4485 8.32389 43.4083 5.64306C46.7429 6.27254 48.3807 10.0568 49.0741 12.3155ZM41.8222 14.5742C38.9008 15.4851 35.7064 16.4775 32.5046 17.4698C33.4046 14.0114 35.1162 10.5604 37.2114 8.30167C37.9934 7.45743 39.0852 6.52433 40.3762 5.99112C41.5935 8.53124 41.8517 12.1378 41.8222 14.5742ZM35.8392 2.94002C36.872 2.9178 37.7352 3.14737 38.4803 3.63614C37.2925 4.25081 36.149 5.13948 35.0719 6.29475C32.2833 9.30143 30.1439 13.9595 29.2955 18.4622C26.6396 19.2842 24.0354 20.0988 21.6451 20.8393C23.1501 13.7596 29.0668 3.13256 35.8392 2.94002Z" fill="#95BF47"/>
<path fill-rule="evenodd" clip-rule="evenodd" d="M69.2732 16.7808C68.9413 16.7512 62.4934 16.6549 62.4934 16.6549C62.4934 16.6549 57.0932 11.397 56.5621 10.8564C56.3629 10.6564 56.0973 10.5527 55.8096 10.5083V90.9924L79.9925 84.9568C79.9925 84.9568 70.1216 17.9806 70.0626 17.5214C70.011 17.0623 69.6052 16.8105 69.2732 16.7808Z" fill="#5E8E3E"/>
<path fill-rule="evenodd" clip-rule="evenodd" d="M42.4049 29.2667L39.5941 39.8197C39.5941 39.8197 36.4587 38.3904 32.7479 38.62C27.3034 38.9681 27.2444 42.4117 27.2961 43.2781C27.5912 47.9955 39.9556 49.0249 40.6565 60.0814C41.2024 68.7756 36.0604 74.7223 28.6535 75.1963C19.7638 75.7591 14.8652 70.4937 14.8652 70.4937L16.7465 62.4512C16.7465 62.4512 21.6745 66.1837 25.614 65.9319C28.1887 65.7689 29.1109 63.6658 29.015 62.1772C28.6314 56.0232 18.5539 56.386 17.9195 46.27C17.3809 37.761 22.9508 29.1334 35.2415 28.3559C39.9851 28.0522 42.4049 29.2667 42.4049 29.2667Z" fill="white"/>
</g>
<defs>
<clipPath id="clip0_2029_2">
<rect width="80" height="91" fill="white"/>
</clipPath>
</defs>
</svg>
