<svg width="300" height="51" viewBox="0 0 300 51" fill="none" xmlns="http://www.w3.org/2000/svg">
<path d="M271.957 50.9979C264.695 50.9979 259.36 47.6058 259.36 41.2329C259.36 39.7393 259.714 38.0465 260.424 36.5551L261.777 33.5701H273.31L270.675 40.2881C269.965 42.3194 270.602 43.4057 272.384 43.4057C275.157 43.4057 276.512 40.6974 276.73 38.0509C276.73 35.2031 275.729 33.7802 273.666 28.7574L272.886 26.8564C271.031 22.4464 269.615 18.8552 269.615 14.5157C269.615 5.90589 277.086 0.00442343 287.975 0.00442343C294.665 0.00442343 300 3.66657 300 9.49945C300 11.0617 299.646 12.6859 299.001 14.4473L297.719 18.0408H285.984L288.976 10.1766C289.402 8.89093 289.046 7.59868 287.121 7.59868C284.203 7.59868 282.993 9.96855 282.712 12.9536C282.712 15.6002 283.849 19.125 285.274 22.1786L286.127 24.0086C287.909 27.8722 289.829 32.6871 289.829 36.0815C289.829 45.1693 282.349 51 271.96 51M205.771 50.3893L204.062 33.9771H203.279L197.442 50.3893H184.629L204.198 0.615149H217.149L209.606 17.3658H210.605L222.276 0.615149H235.661L214.81 29.0295L217.871 50.3893H205.771ZM12.4674 50.9979C-0.411389 50.9979 -2.69151 39.602 2.7874 26.3144L4.56893 21.9752C9.47728 10.0416 16.7401 0 28.2014 0C41.0802 0 42.9358 11.4644 37.8095 24.6148L36.0999 29.0228C31.4025 41.1022 23.8545 50.9979 12.4674 50.9979ZM26.8446 7.87085C25.0631 7.87085 23.8545 8.88651 23.0727 10.8559L11.7574 39.54C11.4745 40.3544 11.4025 40.6953 11.4025 41.1022C11.4025 42.0493 12.2562 42.7951 13.8198 42.7951C15.6011 42.7951 16.8817 41.848 17.6634 39.8101L28.8348 11.2564C29.0439 10.7806 29.2616 10.0327 29.2616 9.62559C29.2616 8.68515 28.4082 7.87085 26.8446 7.87085ZM237.227 50.9979C226.84 50.9979 222.07 44.3507 225.912 34.4551L239.156 0.615149H252.18L236.521 40.4871C235.877 42.118 236.521 43.1336 238.366 43.1336C240.002 43.1336 240.858 42.3171 241.641 40.2858L257.299 0.612937H270.178L255.516 38.0465C253.809 42.4545 251.39 45.7779 248.474 47.88C245.628 49.9113 241.856 50.9956 237.229 50.9956M131.179 50.3893L150.682 0.615149H161.854C172.742 0.615149 178.577 8.1408 174.951 18.5188L174.524 19.7424C171.104 29.4365 162.281 33.101 150.966 33.101L144.13 50.3893H131.179ZM153.954 25.2986L154.311 25.2302C157.445 25.2302 159.791 24.3515 160.998 21.2979L163.771 14.1817C165.124 10.7873 164.836 8.5568 160.926 8.5568H160.569L153.952 25.301L153.954 25.2986ZM166.125 50.3893L185.623 0.615149H198.575L179.069 50.3893H166.125ZM114.672 50.3893L124.139 27.6065H123.003L110.124 50.3893H101.372L106.57 27.6065H105.572L96.949 50.3893H86.3435L105.776 0.615149H119.226L113.821 27.1286H114.817L130.187 0.615149H145.065L125.494 50.3893H114.672ZM60.5097 50.3893L67.4825 32.4857L71.6094 0.615149H83.5693L79.4427 18.251H80.0873L89.5494 0.615149H102.291L81.2219 32.6938L74.314 50.3893H60.5097ZM32.2539 50.3893L51.8226 0.615149H64.7755L48.5519 41.919H58.8023L55.5294 50.3982H32.2539V50.3893Z" fill="white"/>
</svg>
