<svg width="300" height="276" viewBox="0 0 300 276" fill="none" xmlns="http://www.w3.org/2000/svg">
<g clip-path="url(#clip0_66_2)">
<path d="M4.29415 272.805C3.58914 272.501 3.45844 272.285 3.45844 271.336C3.45844 268.949 3.63643 266.347 3.68162 265.657C3.71986 264.999 3.85683 264.524 4.21142 264.524C4.60426 264.524 4.64877 264.916 4.64877 265.258C4.64877 265.822 4.82396 266.739 5.0416 267.467C6.00246 270.677 8.58403 271.855 11.322 271.855C15.2705 271.855 17.2048 269.209 17.2048 266.911C17.2048 264.784 16.5443 262.751 12.9059 259.985L10.8854 258.421C6.072 254.692 4.41234 251.666 4.41234 248.152C4.41234 243.385 8.43386 239.991 14.5238 239.991C17.3737 239.991 19.1995 240.416 20.3169 240.701C20.7034 240.796 20.9169 240.922 20.9169 241.22C20.9169 241.783 20.7479 243.044 20.7479 246.418C20.7479 247.374 20.6172 247.722 20.2724 247.722C19.9692 247.722 19.8475 247.463 19.8475 246.936C19.8475 246.551 19.6237 245.209 18.708 244.082C18.0537 243.259 16.7869 241.955 13.9558 241.955C10.7067 241.955 8.73349 243.823 8.73349 246.418C8.73349 248.412 9.74585 249.925 13.387 252.653L14.6162 253.572C19.8538 257.598 21.7693 260.497 21.7693 264.619C21.7693 267.126 20.8084 270.113 17.6838 272.159C15.4944 273.545 13.0366 273.931 10.6935 273.931C8.15363 273.931 6.17766 273.627 4.29415 272.805Z" fill="#192659"/>
<path d="M40.01 253.153C40.01 246.563 40.01 245.348 39.9238 243.962C39.8313 242.486 39.4865 241.796 38.0403 241.493C37.6962 241.404 36.9487 241.36 36.3362 241.36C35.8571 241.36 35.5957 241.277 35.5957 240.967C35.5957 240.663 35.8961 240.574 36.5566 240.574C38.8705 240.574 41.6314 240.707 42.8511 240.707C44.2521 240.707 52.9784 240.707 53.8143 240.663C54.6444 240.574 55.343 240.492 55.6977 240.403C55.911 240.353 56.1793 240.226 56.3963 240.226C56.6133 240.226 56.6585 240.403 56.6585 240.618C56.6585 240.916 56.4415 241.429 56.31 243.417C56.2656 243.841 56.1793 245.752 56.0906 246.272C56.0416 246.487 55.959 246.753 55.6496 246.753C55.343 246.753 55.2604 246.531 55.2604 246.146C55.2604 245.841 55.2123 245.1 54.9986 244.582C54.6888 243.803 54.2515 243.284 52.0558 243.018C51.3119 242.935 46.7096 242.854 45.8252 242.854C45.6111 242.854 45.5195 242.98 45.5195 243.284V254.28C45.5195 254.584 45.5638 254.762 45.8252 254.762C46.7926 254.762 51.8478 254.762 52.853 254.666C53.9071 254.584 54.5642 254.458 54.9563 254.021C55.2604 253.673 55.4363 253.457 55.6496 253.457C55.8284 253.457 55.959 253.54 55.959 253.799C55.959 254.065 55.7421 254.762 55.6114 256.946C55.5218 257.813 55.4363 259.548 55.4363 259.858C55.4363 260.199 55.4363 260.681 55.0434 260.681C54.743 260.681 54.6506 260.503 54.6506 260.288C54.6123 259.858 54.6123 259.295 54.4816 258.725C54.2577 257.857 53.6449 257.205 52.0175 257.035C51.1878 256.946 46.8403 256.907 45.787 256.907C45.5638 256.907 45.5195 257.072 45.5195 257.338V260.762C45.5195 262.238 45.4804 266.232 45.5195 267.492C45.6111 270.487 46.3106 271.133 50.7884 271.133C51.9312 271.133 53.7764 271.133 54.9127 270.614C56.0486 270.089 56.5722 269.183 56.8788 267.404C56.9643 266.929 57.0567 266.752 57.3633 266.752C57.711 266.752 57.711 267.094 57.711 267.531C57.711 268.531 57.3633 271.481 57.1401 272.349C56.8336 273.469 56.4415 273.469 54.7821 273.469C48.1525 273.469 45.2129 273.21 42.637 273.21C41.6314 273.21 38.8705 273.343 37.1246 273.343C36.5566 273.343 36.2499 273.21 36.2499 272.905C36.2499 272.69 36.4259 272.564 36.9487 272.564C37.603 272.564 38.1265 272.475 38.5256 272.393C39.394 272.216 39.6172 271.266 39.7931 270.006C40.01 268.183 40.01 264.759 40.01 260.762V253.153Z" fill="#192659"/>
<path d="M87.886 255.224C89.2841 257.351 96.3633 269.094 97.4548 270.48C98.2011 271.436 98.8558 271.956 99.9921 272.304C100.735 272.519 101.259 272.564 101.652 272.564C101.958 272.564 102.22 272.646 102.22 272.906C102.22 273.203 101.875 273.336 101.39 273.336H100.085C99.0312 273.336 95.5784 273.336 92.2138 273.253C91.0743 273.203 90.7303 273.121 90.7303 272.81C90.7303 272.55 90.9436 272.424 91.3356 272.329C91.5596 272.285 91.7285 271.899 91.4289 271.329C89.0219 267.087 86.5328 262.795 84.5186 259.56L78.0489 269.917C77.6117 270.613 77.3947 271.26 77.4395 271.74C77.481 272.127 77.8767 272.386 78.2688 272.482C78.531 272.519 78.9238 272.564 79.2777 272.564C79.5399 272.564 79.8012 272.697 79.8012 272.95C79.8012 273.253 79.4918 273.336 78.9238 273.336H78.1381C77.8767 273.336 75.1192 273.215 74.0277 273.215C73.1975 273.215 71.0523 273.336 70.3537 273.336H69.6169C69.1796 273.336 68.9556 273.203 68.9556 272.95C68.9556 272.697 69.224 272.564 69.5688 272.564C69.8782 272.564 70.5325 272.519 71.183 272.349C72.4541 272 73.2834 271.177 74.7744 269.094L83.1206 257.262L75.6037 244.917C74.5512 243.176 73.5041 242.138 71.9749 241.663C71.2763 241.448 70.5777 241.365 70.1404 241.365C69.8782 241.365 69.6995 241.233 69.6995 240.929C69.6995 240.675 70.0097 240.586 70.5777 240.586C71.624 240.586 75.1673 240.707 77.2196 240.707C77.8323 240.707 80.2775 240.586 81.898 240.586C82.5049 240.586 82.7729 240.675 82.7729 240.973C82.7729 241.27 82.5049 241.365 82.1149 241.365C81.8536 241.365 81.2828 241.403 80.9371 241.536C80.5451 241.669 80.4082 241.973 80.4082 242.233C80.4082 242.492 80.5833 243.018 80.8455 243.486C82.7281 246.955 84.6974 250.121 86.4148 253.064C87.6822 251.159 91.703 245.125 92.3643 243.917C92.7082 243.315 92.8389 242.619 92.8389 242.271C92.8389 241.967 92.5332 241.619 92.1021 241.492C91.6648 241.365 91.0488 241.365 90.7044 241.365C90.436 241.365 90.1739 241.27 90.1739 240.973C90.1739 240.714 90.4808 240.586 91.0969 240.586C92.8015 240.586 94.6328 240.707 95.4629 240.707C96.3378 240.707 98.128 240.586 99.75 240.586C100.228 240.586 100.535 240.714 100.535 240.973C100.535 241.233 100.273 241.365 99.8355 241.365C99.3954 241.365 98.8755 241.448 98.2586 241.619C97.2604 241.879 96.3822 243.094 95.07 244.999L87.886 255.224Z" fill="#192659"/>
<path d="M121.622 242.999L115.124 243.177C112.59 243.259 111.543 243.474 110.889 244.436C110.452 245.082 110.235 245.601 110.151 245.95C110.059 246.291 109.928 246.469 109.66 246.469C109.347 246.469 109.261 246.254 109.261 245.778C109.261 245.082 110.103 241.138 110.19 240.815C110.32 240.252 110.458 239.992 110.719 239.992C111.065 239.992 111.504 240.429 112.59 240.486C113.857 240.613 115.517 240.708 116.956 240.708H134.271C137.073 240.708 138.114 240.271 138.455 240.271C138.755 240.271 138.794 240.531 138.794 241.182C138.794 242.094 138.669 245.082 138.669 246.209C138.625 246.646 138.538 246.905 138.284 246.905C137.945 246.905 137.858 246.684 137.814 246.038L137.776 245.563C137.69 244.436 136.505 243.221 132.605 243.132L127.087 242.999V260.769C127.087 264.758 127.087 268.183 127.304 270.044C127.441 271.26 127.702 272.209 129.014 272.386C129.63 272.468 130.591 272.564 131.238 272.564C131.721 272.564 131.938 272.69 131.938 272.906C131.938 273.21 131.59 273.343 131.108 273.343C128.223 273.343 125.472 273.215 124.243 273.215C123.237 273.215 120.486 273.343 118.74 273.343C118.172 273.343 117.863 273.21 117.863 272.906C117.863 272.69 118.041 272.564 118.562 272.564C119.216 272.564 119.739 272.475 120.138 272.386C121.006 272.209 121.274 271.26 121.405 270C121.622 268.183 121.622 264.758 121.622 260.776V242.999Z" fill="#192659"/>
<path d="M155.576 259.877C155.404 259.877 155.359 259.751 155.404 259.573L159.419 248.912C159.47 248.735 159.553 248.52 159.687 248.52C159.815 248.52 159.86 248.735 159.904 248.912L163.837 259.624C163.881 259.751 163.837 259.877 163.62 259.877H155.576ZM164.449 262.023C164.672 262.023 164.806 262.112 164.883 262.333L168.382 271.526C168.599 272.045 168.292 272.437 167.992 272.52C167.552 272.564 167.379 272.653 167.379 272.913C167.379 273.21 167.902 273.21 168.688 273.254C172.186 273.336 175.378 273.336 176.947 273.336C178.57 273.336 178.965 273.254 178.965 272.913C178.965 272.609 178.736 272.564 178.39 272.564C177.867 272.564 177.21 272.52 176.552 272.393C175.639 272.171 174.369 271.57 172.709 267.664C169.913 261.08 162.917 243.404 161.871 241.024C161.436 240.024 161.174 239.638 160.785 239.638C160.344 239.638 160.082 240.113 159.553 241.371L148.586 268.575C147.715 270.747 146.885 272.216 144.871 272.475C144.527 272.52 143.91 272.564 143.518 272.564C143.166 272.564 142.998 272.653 142.998 272.913C142.998 273.254 143.259 273.336 143.827 273.336C146.093 273.336 148.5 273.222 148.979 273.222C150.339 273.222 152.212 273.336 153.613 273.336C154.095 273.336 154.357 273.254 154.357 272.913C154.357 272.653 154.223 272.564 153.696 272.564H153.042C151.689 272.564 151.299 272 151.299 271.216C151.299 270.703 151.513 269.658 151.95 268.575L154.312 262.371C154.402 262.112 154.491 262.023 154.708 262.023H164.449Z" fill="#192659"/>
<path d="M194.758 267.449C194.847 270.829 195.415 271.956 196.29 272.26C197.037 272.52 197.866 272.564 198.563 272.564C199.048 272.564 199.303 272.646 199.316 272.906C199.316 273.247 198.919 273.343 198.307 273.343C195.46 273.343 193.724 273.216 192.9 273.216C192.511 273.216 190.461 273.343 188.183 273.343C187.62 273.343 187.225 273.298 187.225 272.906C187.225 272.646 187.487 272.564 187.927 272.564C188.489 272.564 189.28 272.52 189.893 272.349C191.029 272 191.209 270.74 191.246 266.974L191.643 241.315C191.643 240.454 191.771 239.853 192.205 239.853C192.683 239.853 193.072 240.417 193.807 241.188C194.33 241.751 200.975 248.817 207.365 255.097C210.339 258.047 216.245 264.283 216.985 264.979H217.202L216.768 245.525C216.73 242.879 216.327 242.056 215.281 241.619C214.623 241.36 213.576 241.36 212.963 241.36C212.44 241.36 212.261 241.233 212.261 240.973C212.261 240.632 212.746 240.581 213.397 240.581C215.67 240.581 217.776 240.707 218.695 240.707C219.181 240.707 220.841 240.581 222.985 240.581C223.56 240.581 223.994 240.632 223.994 240.973C223.994 241.233 223.732 241.36 223.203 241.36C222.768 241.36 222.417 241.36 221.901 241.492C220.675 241.834 220.318 242.747 220.278 245.171L219.794 272.519C219.794 273.469 219.621 273.862 219.219 273.862C218.747 273.862 218.217 273.38 217.732 272.906C214.974 270.316 209.377 264.631 204.818 260.168C200.056 255.49 195.205 250.077 194.414 249.254H194.285L194.758 267.449Z" fill="#192659"/>
<path d="M248.264 242.999L241.765 243.177C239.225 243.259 238.184 243.474 237.526 244.436C237.092 245.082 236.875 245.601 236.786 245.95C236.696 246.291 236.569 246.469 236.301 246.469C235.988 246.469 235.905 246.254 235.905 245.778C235.905 245.082 236.748 241.138 236.83 240.815C236.965 240.252 237.099 239.992 237.36 239.992C237.705 239.992 238.139 240.429 239.225 240.486C240.501 240.613 242.161 240.708 243.591 240.708H260.916C263.712 240.708 264.758 240.271 265.09 240.271C265.397 240.271 265.435 240.531 265.435 241.182C265.435 242.094 265.307 245.082 265.307 246.209C265.263 246.646 265.18 246.905 264.925 246.905C264.586 246.905 264.503 246.684 264.465 246.038L264.413 245.563C264.331 244.436 263.15 243.221 259.244 243.132L253.728 242.999V260.769C253.728 264.758 253.728 268.183 253.945 270.044C254.079 271.26 254.341 272.209 255.655 272.386C256.262 272.468 257.232 272.564 257.877 272.564C258.362 272.564 258.579 272.69 258.579 272.906C258.579 273.21 258.235 273.343 257.749 273.343C254.864 273.343 252.106 273.215 250.881 273.215C249.878 273.215 247.127 273.343 245.378 273.343C244.81 273.343 244.504 273.21 244.504 272.906C244.504 272.69 244.676 272.564 245.199 272.564C245.857 272.564 246.38 272.475 246.783 272.386C247.65 272.209 247.919 271.26 248.047 270C248.264 268.183 248.264 264.758 248.264 260.776V242.999Z" fill="#192659"/>
<path d="M282.224 253.153C282.224 246.563 282.224 245.348 282.134 243.962C282.044 242.486 281.7 241.796 280.258 241.493C279.907 241.404 279.16 241.36 278.547 241.36C278.075 241.36 277.806 241.277 277.806 240.967C277.806 240.663 278.113 240.574 278.77 240.574C281.088 240.574 283.845 240.707 285.065 240.707C286.462 240.707 295.189 240.707 296.024 240.663C296.855 240.574 297.563 240.492 297.908 240.403C298.125 240.353 298.393 240.226 298.61 240.226C298.82 240.226 298.872 240.403 298.872 240.618C298.872 240.916 298.655 241.429 298.527 243.417C298.476 243.841 298.393 245.752 298.297 246.272C298.259 246.487 298.17 246.753 297.863 246.753C297.563 246.753 297.467 246.531 297.467 246.146C297.467 245.841 297.429 245.1 297.213 244.582C296.906 243.803 296.465 243.284 294.27 243.018C293.523 242.935 288.92 242.854 288.039 242.854C287.822 242.854 287.733 242.98 287.733 243.284V254.28C287.733 254.584 287.778 254.762 288.039 254.762C289.003 254.762 294.058 254.762 295.067 254.666C296.114 254.584 296.778 254.458 297.174 254.021C297.467 253.673 297.646 253.457 297.863 253.457C298.042 253.457 298.17 253.54 298.17 253.799C298.17 254.065 297.953 254.762 297.825 256.946C297.736 257.813 297.646 259.548 297.646 259.858C297.646 260.199 297.646 260.681 297.257 260.681C296.957 260.681 296.867 260.503 296.867 260.288C296.822 259.858 296.822 259.295 296.689 258.725C296.472 257.857 295.859 257.205 294.238 257.035C293.395 256.946 289.055 256.907 288.001 256.907C287.778 256.907 287.733 257.072 287.733 257.338V260.762C287.733 262.238 287.688 266.232 287.733 267.492C287.822 270.487 288.518 271.133 292.999 271.133C294.148 271.133 295.987 271.133 297.123 270.614C298.259 270.089 298.783 269.183 299.089 267.404C299.185 266.929 299.267 266.752 299.574 266.752C299.919 266.752 299.919 267.094 299.919 267.531C299.919 268.531 299.574 271.481 299.357 272.349C299.05 273.469 298.655 273.469 296.996 273.469C290.369 273.469 287.433 273.21 284.853 273.21C283.845 273.21 281.088 273.343 279.339 273.343C278.77 273.343 278.464 273.21 278.464 272.905C278.464 272.69 278.636 272.564 279.16 272.564C279.817 272.564 280.348 272.475 280.736 272.393C281.611 272.216 281.827 271.266 282.007 270.006C282.224 268.183 282.224 264.759 282.224 260.762V253.153Z" fill="#192659"/>
<path d="M212.606 206.687C213.263 211.909 212.325 211.738 202.661 213.03L202.967 215.258C205.047 214.777 211.24 213.542 212.516 214.176C213.787 214.808 213.87 215.334 214.24 217.423L216.691 216.885L215.057 206.262L212.606 206.687Z" fill="#957411"/>
<path d="M252.579 166.188C249.515 160.616 245.94 169.569 241.855 169.398C240.821 168.891 240.821 167.872 240.317 167.03C243.553 164.668 247.293 162.136 246.451 157.236C245.94 154.362 244.064 152.678 241.855 151.159C239.123 150.146 235.382 149.639 233.333 152.001C222.992 132.305 212.312 110.99 203.011 91.1813H186.191L207.959 134.098H181.097L182.355 146.942L213.78 147.044L227.799 173.576L237.054 172.348C235.944 173 218.134 184.288 198.914 187.978L201.665 206.648C223.05 200.906 243.566 190.087 260.239 177.165L252.579 166.188ZM197.234 144.043C195.734 144.043 194.528 142.846 194.528 141.359C194.528 139.883 195.734 138.681 197.234 138.681C198.722 138.681 199.928 139.883 199.928 141.359C199.928 142.846 198.722 144.043 197.234 144.043ZM237.897 155.407C238.076 155.375 238.255 155.35 238.44 155.35C240.145 155.35 241.536 156.724 241.536 158.414C241.536 160.11 240.145 161.478 238.44 161.478C238.255 161.478 238.076 161.459 237.897 161.427C239.34 161.168 240.438 159.921 240.438 158.414C240.438 156.913 239.34 155.66 237.897 155.407ZM236.736 166.605C232.74 166.605 229.484 163.402 229.484 159.445C229.484 156.869 231.45 154.375 233.511 153.115C232.011 154.431 231.041 156.331 231.041 158.477C231.041 162.434 234.271 165.643 238.267 165.643C239.659 165.643 240.948 165.238 242.046 164.554C240.77 165.669 238.561 166.605 236.736 166.605Z" fill="#957411"/>
<path d="M263.929 76.1327H236.645L234.131 85.2618V75.9548L229.433 74.2333L198.524 74.3161L195.517 85.2618V74.3289H195.408L177.586 38.6992C175.212 42.8772 172.058 46.1056 167.756 48.3218L167.41 46.1056C173.807 42.4591 177.312 36.23 178.473 28.7092C178.824 23.2577 177.395 17.3518 174.918 12.996C167.257 0.834636 149.543 -2.03935 139.665 4.89258C131.661 9.61523 125.867 21.2705 127.914 31.577L118.038 18.2317C116.161 20.0865 113.78 21.9476 111.565 23.4673L132.503 51.7661L131.344 54.1269L126.496 47.6701L110.716 78.6967C106.624 80.0515 104.236 74.8166 100.493 74.1385C95.5171 72.3342 90.1036 74.3091 87.3781 76.1645C82.7852 80.2217 80.3914 86.9771 82.9541 92.3838C85.5107 97.7835 94.6105 109.515 90.2762 120.416C82.9993 137.092 75.5141 151.671 67.3118 167.346C68.6774 168.568 74.4099 175.196 74.4099 175.196C71.9145 174.367 58.9401 166.523 55.8731 163.826L45.6559 178.013C79.5485 202.843 120.253 213.656 160.951 212.466V216.01C164.749 217.423 178.058 215.802 178.058 215.802L178.192 217.156C171.662 218.328 164.972 219.093 163.53 220.531C165.298 221.575 178.569 219.708 178.569 219.708C178.569 219.708 178.467 220.784 179.117 221.215C181.493 222.746 184.582 221.658 184.263 218.778L184.129 215.118L193.314 213.725L193.411 214.991L186.337 215.846L186.471 218.378L193.953 217.511C194.911 220.354 200.873 220.309 200.094 216.074V216.068L198.868 207.142C198.945 207.116 199.034 207.091 199.111 207.071L196.303 188.206C194.349 188.504 192.376 188.712 190.417 188.82C186.842 188.314 184.799 185.104 184.289 182.401L179.769 146.936H180.005L178.735 134.098H178.492L172.849 91.2889L155.544 91.3263L161.806 134.098H102.651L94.6105 144.879L99.8384 134.098H99.6436L139.365 49.4238C139.365 49.4238 143.374 53.032 150.287 53.7533L152.857 74.1451H147.574C139.502 74.1451 137.731 72.3342 137.367 68.5996H133.726L133.638 94.8085L137.182 94.8974C137.182 94.8974 136.914 88.9404 147.28 88.9404H185.068L185.106 89.0277H201.996C201.984 89.003 201.971 88.9713 201.958 88.9404H229.433L234.08 87.0912H264.069C265.422 83.3751 265.295 79.2412 263.929 76.1327ZM93.3814 77.4625L99.0025 95.758L97.0615 96.3211L91.4318 78.0256L93.3814 77.4625ZM76.5682 168.676C75.0768 168.676 73.8674 167.473 73.8674 165.991C73.8674 164.517 75.0768 163.313 76.5682 163.313C78.0579 163.313 79.2686 164.517 79.2686 165.991C79.2686 167.473 78.0579 168.676 76.5682 168.676ZM171.643 207.407C178.581 208.129 180.306 207.679 190.404 205.787L190.583 208.939C179.175 212.307 168.113 210.927 168.113 210.927L168.483 198.297H171.554L171.643 207.407ZM153.013 138.68C154.503 138.68 155.716 139.883 155.716 141.365C155.716 142.839 154.503 144.043 153.013 144.043C151.523 144.043 150.316 142.839 150.316 141.365C150.316 139.883 151.523 138.68 153.013 138.68ZM113.984 138.68C115.482 138.68 116.691 139.883 116.691 141.365C116.691 142.839 115.482 144.043 113.984 144.043C112.494 144.043 111.284 142.839 111.284 141.365C111.284 139.883 112.494 138.68 113.984 138.68ZM163.848 148.285L169.128 184.091C168.79 187.472 166.913 191.181 163.848 192.879C161.359 194.157 149.706 194.999 145.796 194.891V194.898C130.521 195.069 101.179 189.669 79.5485 178.013V175.981L93.1714 148.285H163.848ZM97.0204 101.272C93.3341 101.272 89.5615 99.2146 87.2634 96.7141C89.3988 98.3858 92.0983 99.3925 95.0355 99.3925C101.984 99.3925 107.617 93.8021 107.617 86.9075C107.617 83.6659 106.363 80.7292 104.324 78.5068C107.25 80.7922 109.794 84.8568 109.794 88.8382C109.794 95.7263 103.969 101.272 97.0204 101.272ZM151.228 31.8742C147.897 31.8742 145.19 29.1905 145.19 25.8731C145.19 22.6627 147.746 20.0417 150.954 19.8969C148.551 20.6816 146.811 22.935 146.811 25.5815C146.811 28.8989 149.518 31.5832 152.85 31.5832C152.949 31.5832 153.042 31.5708 153.132 31.5646C152.532 31.7611 151.896 31.8742 151.228 31.8742ZM159.508 42.7063C165.387 39.617 169.402 33.4946 169.402 26.4365C169.402 16.2693 161.091 8.0265 150.836 8.0265C148.538 8.0265 146.339 8.46299 144.299 9.22973C146.888 7.86794 149.837 7.08945 152.969 7.08945C163.216 7.08945 171.535 15.326 171.535 25.4932C171.535 33.3753 166.53 40.0797 159.508 42.7063ZM175.938 48.5818C177.433 48.5818 178.646 49.778 178.646 51.2528C178.646 52.7341 177.433 53.9312 175.938 53.9312C174.445 53.9312 173.239 52.7341 173.239 51.2528C173.239 49.778 174.445 48.5818 175.938 48.5818ZM170.986 74.1451L168.279 52.3481L179.195 74.1196L170.986 74.1451Z" fill="#957411"/>
</g>
<defs>
<clipPath id="clip0_66_2">
<rect width="300" height="276" fill="white"/>
</clipPath>
</defs>
</svg>
