<svg width="300" height="43" viewBox="0 0 300 43" fill="none" xmlns="http://www.w3.org/2000/svg">
<mask id="mask0_66_23" style="mask-type:luminance" maskUnits="userSpaceOnUse" x="0" y="0" width="300" height="43">
<path d="M0 0H300V42.3832H0V0Z" fill="white"/>
</mask>
<g mask="url(#mask0_66_23)">
<mask id="mask1_66_23" style="mask-type:luminance" maskUnits="userSpaceOnUse" x="0" y="0" width="301" height="43">
<path d="M289.169 41.6792C291.169 41.6792 293.012 41.196 294.641 40.2451C296.27 39.2941 297.597 37.9296 298.579 36.1921C299.56 34.4553 300.056 32.3821 300.056 30.0315C300.056 28.8848 299.908 27.7237 299.618 26.577C299.327 25.4304 298.874 24.3365 298.271 23.3129C297.67 22.2939 296.912 21.398 296.015 20.6496C295.54 20.2513 295.011 19.9058 294.451 19.6253L293.336 19.0695L294.348 18.3441C294.644 18.1308 294.939 17.8732 295.224 17.5781C295.983 16.7892 296.614 15.8031 297.097 14.6519C297.582 13.4953 297.828 12.2409 297.828 10.9192C297.828 8.7237 297.35 6.84855 296.408 5.34415C295.467 3.83974 294.185 2.67551 292.603 1.88968C291.021 1.10384 289.234 0.705571 287.291 0.705571H261.249L262.411 3.72202L287.089 3.6043C289.199 3.6043 290.951 4.18756 292.448 5.38925C293.945 6.59094 294.673 8.39118 294.673 10.8916C294.673 13.1368 293.945 14.817 292.448 16.0286C290.951 17.2402 289.199 17.8281 287.091 17.8281H267.593L268.674 20.697H288.963C290.481 20.697 291.82 21.1129 293.061 21.9713C294.285 22.8175 295.274 23.9336 296.003 25.2928C296.731 26.6519 297.101 28.1288 297.101 29.6837C297.101 31.4136 296.731 32.983 296.003 34.3521C295.274 35.7219 294.285 36.8128 293.061 37.6017C291.82 38.4005 290.478 38.7858 288.963 38.7858H275.261L276.339 41.6845L289.169 41.6792ZM254.593 30.1316L258.776 41.6792H262.143L247.216 0.705571H243.93L253.447 26.9699H234.305L232.803 30.1316H254.593ZM219.975 38.5175L218.429 41.6792H189.288V0.703278H192.45V38.5205L219.975 38.5175ZM163.179 0.703278H132.796V41.6792H163.472V35.2411H139.996V24.2363H160.543V17.796H139.996V7.14133H163.179V0.703278ZM105.911 32.1971L93.5627 0.703278H85.6019L102.634 41.975H108.958L125.992 0.703278H118.205L105.911 32.1971ZM61.4757 35.767C53.3375 35.767 47.5424 29.1532 47.5424 21.1327C47.5424 13.1123 53.2198 6.61387 61.3579 6.61387C69.4961 6.61387 75.2913 13.23 75.2913 21.2474C75.2913 29.2655 69.6138 35.764 61.4757 35.764M61.4757 0C48.8893 0 39.9921 9.66013 39.9921 21.2505C39.9921 32.84 48.7739 42.3832 61.3602 42.3832C73.9466 42.3832 82.8438 32.7231 82.8438 21.1327C82.8438 9.54241 74.0598 0 61.4757 0ZM7.20172 21.015V7.25905H17.6806C23.0079 7.25905 26.1696 9.6028 26.1696 14.1084C26.1696 18.3242 22.8902 21.0173 17.7379 21.0173L7.20172 21.015ZM23.7112 26.1665C29.4459 24.5849 33.4867 20.4891 33.4867 13.6956C33.4867 5.67744 27.6885 0.700985 18.2661 0.700985H0V41.6792H7.20172V27.398H16.2159L26.2842 41.6792H34.7733L23.7112 26.1665Z" fill="white"/>
</mask>
<g mask="url(#mask1_66_23)">
<path d="M0 0H299.996V42.3832H0V0Z" fill="white"/>
</g>
</g>
</svg>
